<mxfile host="drawio-plugin" modified="2024-11-30T23:27:02.703Z" agent="Mozilla/5.0 (Macintosh; Intel Mac OS X 10_15_7) AppleWebKit/537.36 (KHTML, like Gecko) Chrome/122.0.0.0 Safari/537.36" etag="dSv0yIdmEgNF7G6JgV4Q" version="22.1.22" type="embed" pages="2">
  <diagram id="SiDS1B9huWm_Mx23eiXT" name="第 1 页">
    <mxGraphModel dx="980" dy="1634" grid="0" gridSize="10" guides="1" tooltips="1" connect="1" arrows="1" fold="1" page="1" pageScale="1" pageWidth="900" pageHeight="1600" math="0" shadow="0">
      <root>
        <mxCell id="0" />
        <mxCell id="1" parent="0" />
        <mxCell id="rm3FDW7au9f4RoEr5TwR-6" value="" style="rounded=0;orthogonalLoop=1;jettySize=auto;html=1;" parent="1" source="rm3FDW7au9f4RoEr5TwR-1" target="rm3FDW7au9f4RoEr5TwR-5" edge="1">
          <mxGeometry relative="1" as="geometry" />
        </mxCell>
        <mxCell id="rm3FDW7au9f4RoEr5TwR-1" value="自动执行" style="shape=umlActor;verticalLabelPosition=bottom;verticalAlign=top;html=1;outlineConnect=0;" parent="1" vertex="1">
          <mxGeometry x="89" y="167" width="30" height="60" as="geometry" />
        </mxCell>
        <mxCell id="rm3FDW7au9f4RoEr5TwR-10" style="edgeStyle=none;rounded=0;orthogonalLoop=1;jettySize=auto;html=1;exitX=1;exitY=0.5;exitDx=0;exitDy=0;entryX=0;entryY=0.5;entryDx=0;entryDy=0;fontSize=14;" parent="1" source="rm3FDW7au9f4RoEr5TwR-5" target="rm3FDW7au9f4RoEr5TwR-7" edge="1">
          <mxGeometry relative="1" as="geometry" />
        </mxCell>
        <mxCell id="rm3FDW7au9f4RoEr5TwR-11" style="edgeStyle=none;rounded=0;orthogonalLoop=1;jettySize=auto;html=1;exitX=1;exitY=0.5;exitDx=0;exitDy=0;entryX=0;entryY=0.5;entryDx=0;entryDy=0;fontSize=14;" parent="1" source="rm3FDW7au9f4RoEr5TwR-5" target="rm3FDW7au9f4RoEr5TwR-8" edge="1">
          <mxGeometry relative="1" as="geometry" />
        </mxCell>
        <mxCell id="rm3FDW7au9f4RoEr5TwR-31" style="edgeStyle=none;rounded=0;orthogonalLoop=1;jettySize=auto;html=1;exitX=0.5;exitY=1;exitDx=0;exitDy=0;entryX=0.5;entryY=0;entryDx=0;entryDy=0;fontSize=14;" parent="1" source="rm3FDW7au9f4RoEr5TwR-5" target="rm3FDW7au9f4RoEr5TwR-22" edge="1">
          <mxGeometry relative="1" as="geometry" />
        </mxCell>
        <mxCell id="rm3FDW7au9f4RoEr5TwR-32" value="注册执行器" style="edgeLabel;html=1;align=center;verticalAlign=middle;resizable=0;points=[];fontSize=14;" parent="rm3FDW7au9f4RoEr5TwR-31" vertex="1" connectable="0">
          <mxGeometry x="0.0053" y="-2" relative="1" as="geometry">
            <mxPoint as="offset" />
          </mxGeometry>
        </mxCell>
        <mxCell id="rm3FDW7au9f4RoEr5TwR-5" value="&lt;font style=&quot;font-size: 14px;&quot;&gt;触发器层&lt;/font&gt;" style="rounded=1;whiteSpace=wrap;html=1;fillColor=#dae8fc;strokeColor=#6c8ebf;" parent="1" vertex="1">
          <mxGeometry x="190" y="173" width="110" height="48" as="geometry" />
        </mxCell>
        <mxCell id="rm3FDW7au9f4RoEr5TwR-18" style="edgeStyle=none;rounded=0;orthogonalLoop=1;jettySize=auto;html=1;exitX=1;exitY=0.5;exitDx=0;exitDy=0;fontSize=14;" parent="1" source="rm3FDW7au9f4RoEr5TwR-7" target="rm3FDW7au9f4RoEr5TwR-13" edge="1">
          <mxGeometry relative="1" as="geometry" />
        </mxCell>
        <mxCell id="rm3FDW7au9f4RoEr5TwR-7" value="&lt;span style=&quot;font-size: 14px;&quot;&gt;任务类 01&lt;br&gt;Schedule&lt;br&gt;&lt;/span&gt;" style="rounded=1;whiteSpace=wrap;html=1;fillColor=#ffe6cc;strokeColor=#d79b00;" parent="1" vertex="1">
          <mxGeometry x="365" y="173" width="110" height="48" as="geometry" />
        </mxCell>
        <mxCell id="rm3FDW7au9f4RoEr5TwR-19" style="edgeStyle=none;rounded=0;orthogonalLoop=1;jettySize=auto;html=1;exitX=1;exitY=0.5;exitDx=0;exitDy=0;entryX=0;entryY=0.5;entryDx=0;entryDy=0;fontSize=14;" parent="1" source="rm3FDW7au9f4RoEr5TwR-8" target="rm3FDW7au9f4RoEr5TwR-14" edge="1">
          <mxGeometry relative="1" as="geometry" />
        </mxCell>
        <mxCell id="rm3FDW7au9f4RoEr5TwR-20" style="edgeStyle=none;rounded=0;orthogonalLoop=1;jettySize=auto;html=1;exitX=1;exitY=0.5;exitDx=0;exitDy=0;entryX=0;entryY=0.5;entryDx=0;entryDy=0;fontSize=14;" parent="1" source="rm3FDW7au9f4RoEr5TwR-8" target="rm3FDW7au9f4RoEr5TwR-15" edge="1">
          <mxGeometry relative="1" as="geometry" />
        </mxCell>
        <mxCell id="rm3FDW7au9f4RoEr5TwR-8" value="&lt;span style=&quot;font-size: 14px;&quot;&gt;任务类 02&lt;br&gt;Quartz&lt;br&gt;&lt;/span&gt;" style="rounded=1;whiteSpace=wrap;html=1;fillColor=#fff2cc;strokeColor=#d6b656;" parent="1" vertex="1">
          <mxGeometry x="365" y="252" width="110" height="48" as="geometry" />
        </mxCell>
        <mxCell id="rm3FDW7au9f4RoEr5TwR-36" style="edgeStyle=orthogonalEdgeStyle;rounded=0;orthogonalLoop=1;jettySize=auto;html=1;exitX=1;exitY=0.5;exitDx=0;exitDy=0;entryX=1;entryY=0.5;entryDx=0;entryDy=0;fontSize=12;" parent="1" source="rm3FDW7au9f4RoEr5TwR-13" target="rm3FDW7au9f4RoEr5TwR-35" edge="1">
          <mxGeometry relative="1" as="geometry" />
        </mxCell>
        <mxCell id="rm3FDW7au9f4RoEr5TwR-13" value="&lt;span style=&quot;font-size: 14px;&quot;&gt;定时清理数据 - 冷数据迁移&lt;/span&gt;" style="rounded=1;whiteSpace=wrap;html=1;fillColor=#ffe6cc;strokeColor=#d79b00;" parent="1" vertex="1">
          <mxGeometry x="544" y="173" width="208" height="48" as="geometry" />
        </mxCell>
        <mxCell id="rm3FDW7au9f4RoEr5TwR-37" style="edgeStyle=orthogonalEdgeStyle;rounded=0;orthogonalLoop=1;jettySize=auto;html=1;exitX=1;exitY=0.5;exitDx=0;exitDy=0;entryX=1;entryY=0.5;entryDx=0;entryDy=0;fontSize=12;" parent="1" source="rm3FDW7au9f4RoEr5TwR-14" target="rm3FDW7au9f4RoEr5TwR-35" edge="1">
          <mxGeometry relative="1" as="geometry" />
        </mxCell>
        <mxCell id="rm3FDW7au9f4RoEr5TwR-14" value="&lt;span style=&quot;font-size: 14px;&quot;&gt;活动状态扫描 - 过期活动关闭&lt;/span&gt;" style="rounded=1;whiteSpace=wrap;html=1;fillColor=#fff2cc;strokeColor=#d6b656;" parent="1" vertex="1">
          <mxGeometry x="544" y="252" width="208" height="48" as="geometry" />
        </mxCell>
        <mxCell id="rm3FDW7au9f4RoEr5TwR-38" style="edgeStyle=orthogonalEdgeStyle;rounded=0;orthogonalLoop=1;jettySize=auto;html=1;exitX=1;exitY=0.5;exitDx=0;exitDy=0;entryX=1;entryY=0.5;entryDx=0;entryDy=0;fontSize=12;" parent="1" source="rm3FDW7au9f4RoEr5TwR-15" target="rm3FDW7au9f4RoEr5TwR-35" edge="1">
          <mxGeometry relative="1" as="geometry" />
        </mxCell>
        <mxCell id="rm3FDW7au9f4RoEr5TwR-15" value="&lt;span style=&quot;font-size: 14px;&quot;&gt;消息发送补偿 - MQ失败重发&lt;/span&gt;" style="rounded=1;whiteSpace=wrap;html=1;fillColor=#fff2cc;strokeColor=#d6b656;" parent="1" vertex="1">
          <mxGeometry x="544" y="331" width="208" height="48" as="geometry" />
        </mxCell>
        <mxCell id="rm3FDW7au9f4RoEr5TwR-21" style="edgeStyle=none;rounded=0;orthogonalLoop=1;jettySize=auto;html=1;exitX=1;exitY=0.5;exitDx=0;exitDy=0;fontSize=14;" parent="1" source="rm3FDW7au9f4RoEr5TwR-16" target="rm3FDW7au9f4RoEr5TwR-17" edge="1">
          <mxGeometry relative="1" as="geometry" />
        </mxCell>
        <mxCell id="rm3FDW7au9f4RoEr5TwR-16" value="&lt;span style=&quot;font-size: 14px;&quot;&gt;任务类 03&lt;br&gt;XXL-Job&lt;br&gt;&lt;/span&gt;" style="rounded=1;whiteSpace=wrap;html=1;fillColor=#f8cecc;strokeColor=#b85450;" parent="1" vertex="1">
          <mxGeometry x="365" y="410" width="110" height="48" as="geometry" />
        </mxCell>
        <mxCell id="rm3FDW7au9f4RoEr5TwR-39" style="edgeStyle=orthogonalEdgeStyle;rounded=0;orthogonalLoop=1;jettySize=auto;html=1;exitX=1;exitY=0.5;exitDx=0;exitDy=0;fontSize=12;entryX=1;entryY=0.5;entryDx=0;entryDy=0;" parent="1" source="rm3FDW7au9f4RoEr5TwR-17" target="rm3FDW7au9f4RoEr5TwR-35" edge="1">
          <mxGeometry relative="1" as="geometry">
            <mxPoint x="597" y="48.799999999999955" as="targetPoint" />
          </mxGeometry>
        </mxCell>
        <mxCell id="rm3FDW7au9f4RoEr5TwR-17" value="&lt;span style=&quot;font-size: 14px;&quot;&gt;支付掉单补偿 - 支付幂等重试&lt;/span&gt;" style="rounded=1;whiteSpace=wrap;html=1;fillColor=#f8cecc;strokeColor=#b85450;" parent="1" vertex="1">
          <mxGeometry x="544" y="410" width="208" height="48" as="geometry" />
        </mxCell>
        <mxCell id="rm3FDW7au9f4RoEr5TwR-29" style="edgeStyle=none;rounded=0;orthogonalLoop=1;jettySize=auto;html=1;exitX=1;exitY=0.5;exitDx=0;exitDy=0;entryX=0;entryY=0.5;entryDx=0;entryDy=0;fontSize=14;" parent="1" source="rm3FDW7au9f4RoEr5TwR-22" target="rm3FDW7au9f4RoEr5TwR-16" edge="1">
          <mxGeometry relative="1" as="geometry" />
        </mxCell>
        <mxCell id="rm3FDW7au9f4RoEr5TwR-33" value="&lt;font style=&quot;font-size: 12px;&quot;&gt;调度&lt;/font&gt;" style="edgeLabel;html=1;align=center;verticalAlign=middle;resizable=0;points=[];fontSize=14;" parent="rm3FDW7au9f4RoEr5TwR-29" vertex="1" connectable="0">
          <mxGeometry x="-0.0122" relative="1" as="geometry">
            <mxPoint as="offset" />
          </mxGeometry>
        </mxCell>
        <mxCell id="rm3FDW7au9f4RoEr5TwR-30" style="edgeStyle=none;rounded=0;orthogonalLoop=1;jettySize=auto;html=1;exitX=1;exitY=0.5;exitDx=0;exitDy=0;entryX=0;entryY=0.5;entryDx=0;entryDy=0;fontSize=14;" parent="1" source="rm3FDW7au9f4RoEr5TwR-22" target="rm3FDW7au9f4RoEr5TwR-24" edge="1">
          <mxGeometry relative="1" as="geometry" />
        </mxCell>
        <mxCell id="rm3FDW7au9f4RoEr5TwR-34" value="&lt;font style=&quot;font-size: 12px;&quot;&gt;调度&lt;/font&gt;" style="edgeLabel;html=1;align=center;verticalAlign=middle;resizable=0;points=[];fontSize=14;" parent="rm3FDW7au9f4RoEr5TwR-30" vertex="1" connectable="0">
          <mxGeometry x="-0.1104" relative="1" as="geometry">
            <mxPoint x="4" y="1" as="offset" />
          </mxGeometry>
        </mxCell>
        <mxCell id="rm3FDW7au9f4RoEr5TwR-22" value="&lt;span style=&quot;font-size: 14px;&quot;&gt;XXL-Job-Admin&lt;br&gt;调度中心&lt;br&gt;&lt;/span&gt;" style="rounded=1;whiteSpace=wrap;html=1;fillColor=#1ba1e2;strokeColor=#006EAF;arcSize=6;fontColor=#ffffff;" parent="1" vertex="1">
          <mxGeometry x="190" y="410" width="110" height="128" as="geometry" />
        </mxCell>
        <mxCell id="rm3FDW7au9f4RoEr5TwR-26" style="edgeStyle=none;rounded=0;orthogonalLoop=1;jettySize=auto;html=1;exitX=1;exitY=0.5;exitDx=0;exitDy=0;entryX=0;entryY=0.5;entryDx=0;entryDy=0;fontSize=14;" parent="1" source="rm3FDW7au9f4RoEr5TwR-24" target="rm3FDW7au9f4RoEr5TwR-25" edge="1">
          <mxGeometry relative="1" as="geometry" />
        </mxCell>
        <mxCell id="rm3FDW7au9f4RoEr5TwR-24" value="&lt;span style=&quot;font-size: 14px;&quot;&gt;任务类 04&lt;br&gt;XXL-Job&lt;br&gt;&lt;/span&gt;" style="rounded=1;whiteSpace=wrap;html=1;fillColor=#f8cecc;strokeColor=#b85450;" parent="1" vertex="1">
          <mxGeometry x="365" y="489" width="110" height="48" as="geometry" />
        </mxCell>
        <mxCell id="rm3FDW7au9f4RoEr5TwR-40" style="edgeStyle=orthogonalEdgeStyle;rounded=0;orthogonalLoop=1;jettySize=auto;html=1;exitX=1;exitY=0.5;exitDx=0;exitDy=0;entryX=1;entryY=0.5;entryDx=0;entryDy=0;fontSize=12;" parent="1" source="rm3FDW7au9f4RoEr5TwR-25" target="rm3FDW7au9f4RoEr5TwR-35" edge="1">
          <mxGeometry relative="1" as="geometry" />
        </mxCell>
        <mxCell id="rm3FDW7au9f4RoEr5TwR-25" value="&lt;span style=&quot;font-size: 14px;&quot;&gt;... ...&lt;/span&gt;" style="rounded=1;whiteSpace=wrap;html=1;fillColor=#f8cecc;strokeColor=#b85450;" parent="1" vertex="1">
          <mxGeometry x="544" y="489" width="208" height="48" as="geometry" />
        </mxCell>
        <mxCell id="rm3FDW7au9f4RoEr5TwR-35" value="&lt;font style=&quot;font-size: 14px;&quot;&gt;领域层&lt;/font&gt;" style="rounded=1;whiteSpace=wrap;html=1;fillColor=#dae8fc;strokeColor=#6c8ebf;" parent="1" vertex="1">
          <mxGeometry x="190" y="83" width="110" height="48" as="geometry" />
        </mxCell>
        <mxCell id="rm3FDW7au9f4RoEr5TwR-41" value="" style="rounded=1;whiteSpace=wrap;html=1;fontSize=12;fillColor=none;arcSize=5;dashed=1;" parent="1" vertex="1">
          <mxGeometry x="167" y="23" width="150" height="208" as="geometry" />
        </mxCell>
        <mxCell id="rm3FDW7au9f4RoEr5TwR-42" value="&lt;b&gt;DDD 分层结构&lt;/b&gt;" style="text;html=1;align=center;verticalAlign=middle;resizable=0;points=[];autosize=1;strokeColor=none;fillColor=none;fontSize=12;" parent="1" vertex="1">
          <mxGeometry x="197.5" y="29" width="95" height="26" as="geometry" />
        </mxCell>
        <mxCell id="rm3FDW7au9f4RoEr5TwR-43" value="&lt;font color=&quot;#cccccc&quot;&gt;bugstack.cn @小傅哥&lt;/font&gt;" style="text;html=1;align=center;verticalAlign=middle;resizable=0;points=[];autosize=1;strokeColor=none;fillColor=none;fontSize=12;rotation=-30;" parent="1" vertex="1">
          <mxGeometry x="656" y="437" width="134" height="26" as="geometry" />
        </mxCell>
      </root>
    </mxGraphModel>
  </diagram>
  <diagram id="bN5UvnC4zxZmkuTy-sqr" name="第 2 页">
    <mxGraphModel dx="980" dy="1634" grid="0" gridSize="10" guides="1" tooltips="1" connect="1" arrows="1" fold="1" page="1" pageScale="1" pageWidth="900" pageHeight="1600" math="0" shadow="0">
      <root>
        <mxCell id="0" />
        <mxCell id="1" parent="0" />
        <mxCell id="3awMGx0xjV3K3rsxxLqV-6" style="edgeStyle=orthogonalEdgeStyle;rounded=0;orthogonalLoop=1;jettySize=auto;html=1;exitX=0.5;exitY=1;exitDx=0;exitDy=0;fontSize=14;fontColor=#000000;" parent="1" source="3awMGx0xjV3K3rsxxLqV-1" target="3awMGx0xjV3K3rsxxLqV-3" edge="1">
          <mxGeometry relative="1" as="geometry" />
        </mxCell>
        <mxCell id="3awMGx0xjV3K3rsxxLqV-7" style="rounded=0;orthogonalLoop=1;jettySize=auto;html=1;exitX=0.5;exitY=1;exitDx=0;exitDy=0;fontSize=14;fontColor=#000000;" parent="1" source="3awMGx0xjV3K3rsxxLqV-1" target="3awMGx0xjV3K3rsxxLqV-4" edge="1">
          <mxGeometry relative="1" as="geometry" />
        </mxCell>
        <mxCell id="3awMGx0xjV3K3rsxxLqV-8" style="edgeStyle=none;rounded=0;orthogonalLoop=1;jettySize=auto;html=1;exitX=0.5;exitY=1;exitDx=0;exitDy=0;entryX=0.5;entryY=0;entryDx=0;entryDy=0;fontSize=14;fontColor=#000000;" parent="1" source="3awMGx0xjV3K3rsxxLqV-1" target="3awMGx0xjV3K3rsxxLqV-5" edge="1">
          <mxGeometry relative="1" as="geometry" />
        </mxCell>
        <mxCell id="3awMGx0xjV3K3rsxxLqV-1" value="&lt;font style=&quot;font-size: 14px;&quot; color=&quot;#000000&quot;&gt;任务调度中心&lt;/font&gt;" style="rounded=1;whiteSpace=wrap;html=1;fontSize=12;fontColor=#ffffff;fillColor=#1ba1e2;strokeColor=#006EAF;" parent="1" vertex="1">
          <mxGeometry x="137" y="129" width="120" height="60" as="geometry" />
        </mxCell>
        <mxCell id="3awMGx0xjV3K3rsxxLqV-12" style="edgeStyle=none;rounded=0;orthogonalLoop=1;jettySize=auto;html=1;exitX=0.5;exitY=1;exitDx=0;exitDy=0;fontSize=14;fontColor=#000000;" parent="1" source="3awMGx0xjV3K3rsxxLqV-3" target="3awMGx0xjV3K3rsxxLqV-9" edge="1">
          <mxGeometry relative="1" as="geometry" />
        </mxCell>
        <mxCell id="3awMGx0xjV3K3rsxxLqV-13" style="edgeStyle=none;rounded=0;orthogonalLoop=1;jettySize=auto;html=1;exitX=0.5;exitY=1;exitDx=0;exitDy=0;entryX=0.5;entryY=0;entryDx=0;entryDy=0;fontSize=14;fontColor=#000000;" parent="1" source="3awMGx0xjV3K3rsxxLqV-3" target="3awMGx0xjV3K3rsxxLqV-10" edge="1">
          <mxGeometry relative="1" as="geometry" />
        </mxCell>
        <mxCell id="3awMGx0xjV3K3rsxxLqV-14" style="edgeStyle=none;rounded=0;orthogonalLoop=1;jettySize=auto;html=1;exitX=0.5;exitY=1;exitDx=0;exitDy=0;entryX=0.5;entryY=0;entryDx=0;entryDy=0;fontSize=14;fontColor=#000000;" parent="1" source="3awMGx0xjV3K3rsxxLqV-3" target="3awMGx0xjV3K3rsxxLqV-11" edge="1">
          <mxGeometry relative="1" as="geometry" />
        </mxCell>
        <mxCell id="3awMGx0xjV3K3rsxxLqV-3" value="&lt;font color=&quot;#000000&quot;&gt;&lt;span style=&quot;font-size: 14px;&quot;&gt;执行器&lt;br&gt;xxx-worker&lt;br&gt;&lt;/span&gt;&lt;/font&gt;" style="rounded=1;whiteSpace=wrap;html=1;fontSize=12;fillColor=#dae8fc;strokeColor=#6c8ebf;" parent="1" vertex="1">
          <mxGeometry x="137" y="298" width="120" height="60" as="geometry" />
        </mxCell>
        <mxCell id="3awMGx0xjV3K3rsxxLqV-15" style="edgeStyle=none;rounded=0;orthogonalLoop=1;jettySize=auto;html=1;exitX=0.5;exitY=1;exitDx=0;exitDy=0;fontSize=14;fontColor=#000000;" parent="1" source="3awMGx0xjV3K3rsxxLqV-4" target="3awMGx0xjV3K3rsxxLqV-10" edge="1">
          <mxGeometry relative="1" as="geometry" />
        </mxCell>
        <mxCell id="3awMGx0xjV3K3rsxxLqV-18" style="edgeStyle=none;rounded=0;orthogonalLoop=1;jettySize=auto;html=1;exitX=0.5;exitY=1;exitDx=0;exitDy=0;entryX=0.5;entryY=0;entryDx=0;entryDy=0;fontSize=14;fontColor=#000000;" parent="1" source="3awMGx0xjV3K3rsxxLqV-4" target="3awMGx0xjV3K3rsxxLqV-9" edge="1">
          <mxGeometry relative="1" as="geometry" />
        </mxCell>
        <mxCell id="3awMGx0xjV3K3rsxxLqV-19" style="edgeStyle=none;rounded=0;orthogonalLoop=1;jettySize=auto;html=1;exitX=0.5;exitY=1;exitDx=0;exitDy=0;entryX=0.5;entryY=0;entryDx=0;entryDy=0;fontSize=14;fontColor=#000000;" parent="1" source="3awMGx0xjV3K3rsxxLqV-4" target="3awMGx0xjV3K3rsxxLqV-11" edge="1">
          <mxGeometry relative="1" as="geometry" />
        </mxCell>
        <mxCell id="3awMGx0xjV3K3rsxxLqV-4" value="&lt;font color=&quot;#000000&quot;&gt;&lt;span style=&quot;font-size: 14px;&quot;&gt;执行器&lt;br&gt;&lt;/span&gt;&lt;/font&gt;&lt;span style=&quot;font-size: 14px;&quot;&gt;xxx-worker&lt;/span&gt;&lt;font color=&quot;#000000&quot;&gt;&lt;span style=&quot;font-size: 14px;&quot;&gt;&lt;br&gt;&lt;/span&gt;&lt;/font&gt;" style="rounded=1;whiteSpace=wrap;html=1;fontSize=12;fillColor=#dae8fc;strokeColor=#6c8ebf;" parent="1" vertex="1">
          <mxGeometry x="330" y="298" width="120" height="60" as="geometry" />
        </mxCell>
        <mxCell id="3awMGx0xjV3K3rsxxLqV-16" style="edgeStyle=none;rounded=0;orthogonalLoop=1;jettySize=auto;html=1;exitX=0.5;exitY=1;exitDx=0;exitDy=0;fontSize=14;fontColor=#000000;" parent="1" source="3awMGx0xjV3K3rsxxLqV-5" target="3awMGx0xjV3K3rsxxLqV-11" edge="1">
          <mxGeometry relative="1" as="geometry" />
        </mxCell>
        <mxCell id="3awMGx0xjV3K3rsxxLqV-17" style="edgeStyle=none;rounded=0;orthogonalLoop=1;jettySize=auto;html=1;exitX=0.5;exitY=1;exitDx=0;exitDy=0;entryX=0.5;entryY=0;entryDx=0;entryDy=0;fontSize=14;fontColor=#000000;" parent="1" source="3awMGx0xjV3K3rsxxLqV-5" target="3awMGx0xjV3K3rsxxLqV-10" edge="1">
          <mxGeometry relative="1" as="geometry" />
        </mxCell>
        <mxCell id="3awMGx0xjV3K3rsxxLqV-5" value="&lt;font color=&quot;#000000&quot;&gt;&lt;span style=&quot;font-size: 14px;&quot;&gt;执行器&lt;br&gt;&lt;/span&gt;&lt;/font&gt;&lt;span style=&quot;font-size: 14px;&quot;&gt;xxx-worker&lt;/span&gt;&lt;font color=&quot;#000000&quot;&gt;&lt;span style=&quot;font-size: 14px;&quot;&gt;&lt;br&gt;&lt;/span&gt;&lt;/font&gt;" style="rounded=1;whiteSpace=wrap;html=1;fontSize=12;fillColor=#dae8fc;strokeColor=#6c8ebf;" parent="1" vertex="1">
          <mxGeometry x="523" y="298" width="120" height="60" as="geometry" />
        </mxCell>
        <mxCell id="3awMGx0xjV3K3rsxxLqV-9" value="&lt;font color=&quot;#000000&quot;&gt;&lt;span style=&quot;font-size: 14px;&quot;&gt;微服务&lt;/span&gt;&lt;/font&gt;" style="rounded=1;whiteSpace=wrap;html=1;fontSize=12;fillColor=#f8cecc;strokeColor=#b85450;" parent="1" vertex="1">
          <mxGeometry x="137" y="548" width="120" height="60" as="geometry" />
        </mxCell>
        <mxCell id="3awMGx0xjV3K3rsxxLqV-10" value="&lt;span style=&quot;color: rgb(0, 0, 0); font-size: 14px;&quot;&gt;微服务&lt;/span&gt;" style="rounded=1;whiteSpace=wrap;html=1;fontSize=12;fillColor=#f8cecc;strokeColor=#b85450;" parent="1" vertex="1">
          <mxGeometry x="330" y="548" width="120" height="60" as="geometry" />
        </mxCell>
        <mxCell id="3awMGx0xjV3K3rsxxLqV-11" value="&lt;span style=&quot;color: rgb(0, 0, 0); font-size: 14px;&quot;&gt;微服务&lt;/span&gt;" style="rounded=1;whiteSpace=wrap;html=1;fontSize=12;fillColor=#f8cecc;strokeColor=#b85450;" parent="1" vertex="1">
          <mxGeometry x="523" y="548" width="120" height="60" as="geometry" />
        </mxCell>
        <mxCell id="3awMGx0xjV3K3rsxxLqV-21" value="RPC" style="rounded=1;whiteSpace=wrap;html=1;fontSize=14;fillColor=#ffe6cc;strokeColor=#d79b00;" parent="1" vertex="1">
          <mxGeometry x="133.5" y="423" width="513" height="60" as="geometry" />
        </mxCell>
      </root>
    </mxGraphModel>
  </diagram>
</mxfile>
